<svg width="620" height="388" viewBox="0 0 620 388" fill="none" xmlns="http://www.w3.org/2000/svg">
<mask id="path-1-inside-1_56_43" fill="white">
<path d="M620 388H0V51.1377L73.0596 0H620V388Z"/>
</mask>
<path d="M620 388H0V51.1377L73.0596 0H620V388Z" fill="#D9D9D9" fill-opacity="0.04"/>
<path d="M620 388V391H623V388H620ZM0 388H-3V391H0V388ZM0 51.1377L-1.7203 48.6799L-3 49.5757V51.1377H0ZM73.0596 0V-3H72.114L71.3393 -2.45776L73.0596 0ZM620 0H623V-3H620V0ZM620 388V385H0V388V391H620V388ZM0 388H3V51.1377H0H-3V388H0ZM0 51.1377L1.7203 53.5955L74.7799 2.45776L73.0596 0L71.3393 -2.45776L-1.7203 48.6799L0 51.1377ZM73.0596 0V3H620V0V-3H73.0596V0ZM620 0H617V388H620H623V0H620Z" fill="#C1121F" mask="url(#path-1-inside-1_56_43)"/>
</svg>
