<svg width="520" height="388" viewBox="0 0 520 388" fill="none" xmlns="http://www.w3.org/2000/svg">
<mask id="path-1-inside-1_56_46" fill="white">
<path d="M520 388H0V51.1377L73.0596 0H520V388Z"/>
</mask>
<path d="M520 388H0V51.1377L73.0596 0H520V388Z" fill="#D9D9D9" fill-opacity="0.04"/>
<path d="M520 388V391H523V388H520ZM0 388H-3V391H0V388ZM0 51.1377L-1.7203 48.6799L-3 49.5757V51.1377H0ZM73.0596 0V-3H72.114L71.3393 -2.45776L73.0596 0ZM520 0H523V-3H520V0ZM520 388V385H0V388V391H520V388ZM0 388H3V51.1377H0H-3V388H0ZM0 51.1377L1.7203 53.5955L74.7799 2.45776L73.0596 0L71.3393 -2.45776L-1.7203 48.6799L0 51.1377ZM73.0596 0V3H520V0V-3H73.0596V0ZM520 0H517V388H520H523V0H520Z" fill="#C1121F" mask="url(#path-1-inside-1_56_46)"/>
</svg>
