<svg width="95" height="71" viewBox="0 0 95 71" fill="none" xmlns="http://www.w3.org/2000/svg">
<path d="M49.2671 1.5L50.2788 3.6416L63.7661 32.1689H60.4458L59.9956 32.7119L51.8394 42.5537L51.4009 43.083L51.5161 43.7617L54.0083 58.4102L54.0991 58.9473L54.5142 59.3008L66.0688 69.1416L66.4897 69.5H84.7749L85.2251 68.9111L92.9282 58.8408L93.3237 58.3232L93.2163 57.6807L89.1382 33.4199L89.0913 33.1416L88.9458 32.8984L70.5942 2.22949L70.1577 1.5H49.2671ZM2.36865 1.5L3.38037 3.6416L16.8677 32.1689H13.5474L13.0972 32.7119L4.94092 42.5537L4.50244 43.083L4.61768 43.7617L7.10986 58.4102L7.20068 58.9473L7.61572 59.3008L19.1704 69.1416L19.5913 69.5H37.8765L38.3267 68.9111L46.0298 58.8408L46.4253 58.3232L46.3179 57.6807L42.2397 33.4199L42.1929 33.1416L42.0474 32.8984L23.6958 2.22949L23.2593 1.5H2.36865Z" stroke="#C1121F" stroke-width="3"/>
</svg>
