<svg width="1345" height="416" viewBox="0 0 1345 416" fill="none" xmlns="http://www.w3.org/2000/svg">
<path d="M719.62 130.57L1174.04 130.569L1174.04 130.568L1245.93 130.214H1246.03L1246.13 130.225L1249.3 130.571H1324.05L1332 19.3032L607.867 18.817L719.62 130.57ZM234.775 412.971H890.313L932.846 370.438L732.352 370.436L718.176 383.98L716.927 385.174L702.189 370.436L672.313 370.438L669.658 370.438L670.683 367.988L679.253 347.502L544.061 212.312L541.306 209.558L545.192 209.298L591.321 206.224L592.121 206.171L695.241 309.291L701.011 295.509L701.464 294.424L702.64 294.424L1008.86 294.422L1119.16 184.127H773.177L792.993 203.944L788.538 203.808L737.8 202.268L737.099 202.247L718.98 184.127H4.28822L234.775 412.971ZM665.423 130.57L553.633 18.7811L401.44 18.681L289.548 130.573L665.423 130.57Z" stroke="url(#paint0_radial_99_118)" stroke-width="3.53506"/>
<defs>
<radialGradient id="paint0_radial_99_118" cx="0" cy="0" r="1" gradientTransform="matrix(-659.747 -15.9993 13290.2 8791.81 827.5 127)" gradientUnits="userSpaceOnUse">
<stop stop-color="#4959EC" stop-opacity="0"/>
<stop offset="0.344768" stop-color="#838AC7"/>
<stop offset="0.495676" stop-color="#0F1327" stop-opacity="0.8"/>
<stop offset="0.812641" stop-color="#C1121F"/>
<stop offset="1" stop-color="#4959EC" stop-opacity="0"/>
</radialGradient>
</defs>
</svg>
