<svg width="215" height="35" viewBox="0 0 215 35" fill="none" xmlns="http://www.w3.org/2000/svg">
<path d="M163.428 10.7636L198.526 10.7643L198.527 10.7636L204.101 10.7367H204.127L204.154 10.7394L204.374 10.7636L209.858 10.7643L210.427 2.78724L155.414 2.74995L163.428 10.7636ZM125.832 32.6611H176.394L179.042 30.0136H164.409L163.406 30.9741L163.079 31.2863L161.806 30.0136H159.625L158.93 30.0143L159.199 29.3728L159.779 27.9862L148.729 16.937L149.746 16.8693L153.323 16.6311L153.533 16.6166L161.289 24.3733L161.55 23.7525L161.669 23.4694H185.586L193.488 15.5676H168.232L169.793 17.1282L168.627 17.0937L164.692 16.9736L164.509 16.9687L163.108 15.5676H108.617L125.832 32.6611ZM158.304 10.7636L150.287 2.74649L138.755 2.73959L130.731 10.7643L158.304 10.7636Z" stroke="#C1121F" stroke-width="0.924812"/>
<path d="M52.1228 10.7636L17.0251 10.7643L17.0244 10.7636L11.4497 10.7367H11.4234L11.3972 10.7394L11.1769 10.7636L5.69339 10.7643L5.12439 2.78724L60.1365 2.74995L52.1228 10.7636ZM89.7189 32.6611H39.1567L36.5092 30.0136H51.1416L52.1449 30.9741L52.4722 31.2863L53.7449 30.0136H55.9256L56.621 30.0143L56.3523 29.3728L55.7723 27.9862L66.8215 16.937L65.8051 16.8693L62.2274 16.6311L62.0182 16.6166L54.2614 24.3733L54.0011 23.7525L53.8823 23.4694H29.965L22.0632 15.5676H47.3188L45.7582 17.1282L46.9238 17.0937L50.8585 16.9736L51.0414 16.9687L52.4425 15.5676H106.934L89.7189 32.6611ZM57.2466 10.7636L65.2637 2.74649L76.7956 2.73959L84.8203 10.7643L57.2466 10.7636Z" stroke="#C1121F" stroke-width="0.924812"/>
</svg>
