<svg width="1140" height="547" viewBox="0 0 1140 547" fill="none" xmlns="http://www.w3.org/2000/svg">
<mask id="path-1-inside-1_70_81" fill="white">
<path d="M727.5 4H982.5L997.5 0H1140V547H1020L1005 543H135L120 547H0V0H712.5L727.5 4Z"/>
</mask>
<path d="M727.5 4L726.727 6.8987L727.107 7H727.5V4ZM982.5 4V7H982.893L983.273 6.8987L982.5 4ZM997.5 0V-3H997.107L996.727 -2.8987L997.5 0ZM1140 0H1143V-3H1140V0ZM1140 547V550H1143V547H1140ZM1020 547L1019.23 549.899L1019.61 550H1020V547ZM1005 543L1005.77 540.101L1005.39 540H1005V543ZM135 543V540H134.607L134.227 540.101L135 543ZM120 547V550H120.393L120.773 549.899L120 547ZM0 547H-3V550H0V547ZM0 0V-3H-3V0H0ZM712.5 0L713.273 -2.8987L712.893 -3H712.5V0ZM727.5 4V7H982.5V4V1H727.5V4ZM982.5 4L983.273 6.8987L998.273 2.8987L997.5 0L996.727 -2.8987L981.727 1.1013L982.5 4ZM997.5 0V3H1140V0V-3H997.5V0ZM1140 0H1137V547H1140H1143V0H1140ZM1140 547V544H1020V547V550H1140V547ZM1020 547L1020.77 544.101L1005.77 540.101L1005 543L1004.23 545.899L1019.23 549.899L1020 547ZM1005 543V540H135V543V546H1005V543ZM135 543L134.227 540.101L119.227 544.101L120 547L120.773 549.899L135.773 545.899L135 543ZM120 547V544H0V547V550H120V547ZM0 547H3V0H0H-3V547H0ZM0 0V3H712.5V0V-3H0V0ZM712.5 0L711.727 2.8987L726.727 6.8987L727.5 4L728.273 1.1013L713.273 -2.8987L712.5 0Z" fill="url(#paint0_radial_70_81)" mask="url(#path-1-inside-1_70_81)"/>
<defs>
<radialGradient id="paint0_radial_70_81" cx="0" cy="0" r="1" gradientTransform="matrix(-852.242 732.424 -5575.27 -25617.4 748.355 -81.703)" gradientUnits="userSpaceOnUse">
<stop offset="0.172108" stop-color="#838AC7"/>
<stop offset="0.495676" stop-color="#0F1327" stop-opacity="0.8"/>
<stop offset="0.812641" stop-color="#C1121F"/>
</radialGradient>
</defs>
</svg>
