<svg width="36" height="36" viewBox="0 0 36 36" fill="none" xmlns="http://www.w3.org/2000/svg">
<rect width="36" height="36" fill="#C1121F"/>
<path fill-rule="evenodd" clip-rule="evenodd" d="M23.2174 8H12.7826V13.2174C12.7826 16.0989 15.1185 18.4348 18 18.4348C20.8815 18.4348 23.2174 16.0989 23.2174 13.2174V8ZM8.86957 23.2174C8.30366 22.5571 8.30399 22.5569 8.30433 22.5566L8.30508 22.5559L8.30678 22.5545L8.31104 22.5509L8.32298 22.5409C8.33245 22.533 8.34498 22.5228 8.36054 22.5103C8.39167 22.4852 8.43498 22.4513 8.49049 22.4097C8.60148 22.3264 8.7613 22.2125 8.96999 22.0783C9.38734 21.81 10.0005 21.4605 10.8096 21.1138C12.43 20.4193 14.8287 19.7391 18 19.7391C21.1713 19.7391 23.57 20.4193 25.1903 21.1138C25.9995 21.4605 26.6127 21.81 27.03 22.0783C27.2387 22.2125 27.3985 22.3264 27.5095 22.4097C27.565 22.4513 27.6083 22.4852 27.6395 22.5103C27.655 22.5228 27.6676 22.533 27.677 22.5409L27.689 22.5509L27.6932 22.5545L27.695 22.5559L27.6957 22.5566C27.696 22.5569 27.6963 22.5571 27.1304 23.2174L27.6963 22.5571L28 22.8175V28H8V22.8175L8.30433 22.5566L8.86957 23.2174Z" fill="white"/>
</svg>
