<svg width="32" height="32" viewBox="0 0 32 32" fill="none" xmlns="http://www.w3.org/2000/svg">
<path d="M28.7107 9.14365C28.7311 9.42791 28.7311 9.71222 28.7311 9.99647C28.7311 18.6665 22.1321 28.6564 10.0711 28.6564C6.35534 28.6564 2.90357 27.5802 0 25.7123C0.52794 25.7732 1.0355 25.7935 1.58376 25.7935C4.64971 25.7935 7.47209 24.758 9.72591 22.9915C6.84265 22.9305 4.42639 21.0422 3.59389 18.4432C4.00002 18.5041 4.40608 18.5447 4.83252 18.5447C5.42133 18.5447 6.01021 18.4634 6.5584 18.3214C3.55333 17.7122 1.29944 15.0726 1.29944 11.8848V11.8036C2.17251 12.2909 3.18783 12.5955 4.26389 12.636C2.49738 11.4584 1.34007 9.44822 1.34007 7.17408C1.34007 5.95583 1.66488 4.83907 2.23345 3.86445C5.4619 7.84415 10.3147 10.4431 15.7563 10.7274C15.6548 10.2401 15.5939 9.73253 15.5939 9.22491C15.5939 5.61064 18.5178 2.6665 22.1523 2.6665C24.0406 2.6665 25.7462 3.45838 26.9442 4.73757C28.4264 4.45332 29.8477 3.90507 31.1066 3.15382C30.6192 4.6767 29.5837 5.95589 28.2234 6.76802C29.5432 6.62596 30.8224 6.26039 32 5.75283C31.1067 7.05227 29.9899 8.20959 28.7107 9.14365V9.14365Z" fill="white"/>
</svg>
